<svg xmlns="http://www.w3.org/2000/svg" xmlns:xlink="http://www.w3.org/1999/xlink" width="115" height="115" viewBox="0 0 115 115">
  <defs>
    <clipPath id="clip-path">
      <rect id="Rectangle_12" data-name="Rectangle 12" width="115" height="115" transform="translate(7489 -135)" fill="#fff"/>
    </clipPath>
  </defs>
  <g id="Group_30" data-name="Group 30" transform="translate(-7489 135)">
    <g id="Group_29" data-name="Group 29">
      <g id="Group_28" data-name="Group 28" clip-path="url(#clip-path)">
        <g id="Group_27" data-name="Group 27">
          <g id="Group_26" data-name="Group 26" clip-path="url(#clip-path)">
            <path id="Path_35" data-name="Path 35" d="M7546.437-52.5A28.379,28.379,0,0,1,7521.5-67.347a4,4,0,0,1,1.6-5.424,4,4,0,0,1,5.425,1.6A20.386,20.386,0,0,0,7546.437-60.5a20.457,20.457,0,0,0,17.632-10.187,4,4,0,0,1,5.467-1.454,4,4,0,0,1,1.455,5.467A28.484,28.484,0,0,1,7546.437-52.5" fill="#fff"/>
            <path id="Path_36" data-name="Path 36" d="M7528.5-95.5a5.4,5.4,0,0,0-5.4,5.4,5.4,5.4,0,0,0,5.4,5.4,5.4,5.4,0,0,0,5.4-5.4,5.4,5.4,0,0,0-5.4-5.4" fill="#fff"/>
            <path id="Path_37" data-name="Path 37" d="M7564.5-95.5a5.4,5.4,0,0,0-5.4,5.4,5.4,5.4,0,0,0,5.4,5.4,5.4,5.4,0,0,0,5.4-5.4,5.4,5.4,0,0,0-5.4-5.4" fill="#fff"/>
            <path id="Path_38" data-name="Path 38" d="M7546.5-23.177a5.883,5.883,0,0,1-5.384-3.433l-2.755-5.922a.949.949,0,0,0-.7-.547.951.951,0,0,0-.852.239L7532-28.423a5.883,5.883,0,0,1-6.288,1.111,5.883,5.883,0,0,1-3.66-5.232l-.279-6.526a.947.947,0,0,0-.435-.772.94.94,0,0,0-.877-.1l-6.138,2.239a5.882,5.882,0,0,1-6.235-1.381,5.881,5.881,0,0,1-1.379-6.233l2.239-6.137a.947.947,0,0,0-.1-.879.948.948,0,0,0-.772-.434l-6.527-.279a5.884,5.884,0,0,1-5.231-3.66A5.881,5.881,0,0,1,7497.423-63l4.417-4.814a.944.944,0,0,0,.239-.851.947.947,0,0,0-.548-.7l-5.921-2.755a5.884,5.884,0,0,1-3.433-5.384,5.882,5.882,0,0,1,3.433-5.384l5.921-2.757a.946.946,0,0,0,.548-.695.947.947,0,0,0-.239-.853L7497.423-92a5.883,5.883,0,0,1-1.111-6.289,5.882,5.882,0,0,1,5.232-3.659l6.525-.281a.945.945,0,0,0,.773-.433.947.947,0,0,0,.1-.879l-2.239-6.137a5.881,5.881,0,0,1,1.379-6.233,5.881,5.881,0,0,1,6.235-1.381l6.137,2.239a.944.944,0,0,0,.879-.1.948.948,0,0,0,.434-.772l.279-6.526a5.883,5.883,0,0,1,3.66-5.232,5.884,5.884,0,0,1,6.288,1.111l4.812,4.417a.942.942,0,0,0,.853.239.944.944,0,0,0,.7-.547l2.756-5.923a5.883,5.883,0,0,1,5.384-3.432,5.881,5.881,0,0,1,5.384,3.433l2.756,5.922a.944.944,0,0,0,.7.547.948.948,0,0,0,.852-.238l4.813-4.418a5.88,5.88,0,0,1,6.288-1.111,5.883,5.883,0,0,1,3.66,5.232l.28,6.526a.95.95,0,0,0,.434.772.943.943,0,0,0,.879.1l6.136-2.239a5.884,5.884,0,0,1,6.235,1.38,5.884,5.884,0,0,1,1.38,6.234l-2.24,6.138a.944.944,0,0,0,.106.878.941.941,0,0,0,.771.433l6.527.281a5.883,5.883,0,0,1,5.232,3.659A5.882,5.882,0,0,1,7595.578-92l-4.418,4.813a.946.946,0,0,0-.238.853.943.943,0,0,0,.546.695l5.923,2.757a5.882,5.882,0,0,1,3.433,5.384,5.884,5.884,0,0,1-3.433,5.384l-5.922,2.755a.947.947,0,0,0-.547.7.946.946,0,0,0,.239.852L7595.577-63a5.881,5.881,0,0,1,1.112,6.288,5.885,5.885,0,0,1-5.233,3.66l-6.526.279a.947.947,0,0,0-.771.434.946.946,0,0,0-.106.879l2.24,6.137a5.884,5.884,0,0,1-1.38,6.234,5.879,5.879,0,0,1-6.234,1.38l-6.137-2.238a.945.945,0,0,0-.879.1.945.945,0,0,0-.434.771l-.28,6.526a5.883,5.883,0,0,1-3.66,5.232A5.88,5.88,0,0,1,7561-28.423l-4.812-4.417a.957.957,0,0,0-.853-.239.946.946,0,0,0-.7.548l-2.756,5.921a5.881,5.881,0,0,1-5.384,3.433M7537.438-41.1a9.142,9.142,0,0,1,1.787.178,8.887,8.887,0,0,1,6.388,5.018L7546.5-34l.887-1.9a8.888,8.888,0,0,1,6.389-5.019,8.9,8.9,0,0,1,7.822,2.19l1.548,1.422.091-2.1a8.889,8.889,0,0,1,3.981-7.081,8.893,8.893,0,0,1,8.064-.97l1.977.722-.721-1.977a8.887,8.887,0,0,1,.969-8.064,8.89,8.89,0,0,1,7.08-3.982l2.1-.091-1.421-1.548a8.889,8.889,0,0,1-2.192-7.822,8.891,8.891,0,0,1,5.018-6.388L7590-77.5l-1.9-.887a8.893,8.893,0,0,1-5.019-6.389,8.892,8.892,0,0,1,2.191-7.822l1.422-1.549-2.1-.091a8.885,8.885,0,0,1-7.08-3.98,8.888,8.888,0,0,1-.97-8.064l.721-1.977-1.975.721a8.893,8.893,0,0,1-8.066-.97,8.89,8.89,0,0,1-3.981-7.079l-.091-2.1-1.549,1.422a8.886,8.886,0,0,1-7.821,2.192,8.893,8.893,0,0,1-6.389-5.018L7546.5-121l-.887,1.906a8.9,8.9,0,0,1-6.388,5.018,8.891,8.891,0,0,1-7.822-2.192l-1.549-1.421-.09,2.1a8.891,8.891,0,0,1-3.982,7.08,8.894,8.894,0,0,1-8.065.97l-1.975-.721.721,1.975a8.9,8.9,0,0,1-.97,8.066,8.892,8.892,0,0,1-7.081,3.981l-2.1.09,1.421,1.548a8.893,8.893,0,0,1,2.192,7.823,8.891,8.891,0,0,1-5.018,6.388L7503-77.5l1.906.887a8.889,8.889,0,0,1,5.018,6.388,8.891,8.891,0,0,1-2.191,7.822l-1.422,1.548,2.1.091a8.89,8.89,0,0,1,7.081,3.982,8.892,8.892,0,0,1,.97,8.065l-.721,1.975,1.974-.72a8.89,8.89,0,0,1,8.066.969,8.891,8.891,0,0,1,3.982,7.08l.09,2.1,1.549-1.421a8.874,8.874,0,0,1,6.035-2.369m56.572-34.531.006,0Z" fill="#fff"/>
          </g>
        </g>
      </g>
    </g>
  </g>
</svg>
